# xmcd
#
# Track frame offsets: 
#        150
#        16260
#        30355
#        40786
#        55447
#        68549
#        80712
#        97360
#        110919
#        122708
#        134282
#        147724
#        158443
#        164787
#        186319
#        198447
#        215212
#        220135
#
# Disc length: 2985 seconds
#
# Revision: 0
# Processed by: cddbd v1.5.2PL0 Copyright (c) Steve Scherf et al.
# Submitted via: ExactAudioCopy v0.99pb5
#
DISCID=180ba712
DTITLE=Hank Williams - Hank Williams Revealed [CD1]
DYEAR=2009
DGENRE=country
TTITLE0=Cold, Cold Heart
TTITLE1=Move It On Over
TTITLE2=Lonesome Whistle
TTITLE3=Long Gone Lonesome Blues
TTITLE4=Hey, Good Lookin'
TTITLE5=I Can't Help It (If I'm Still In Love With You)
TTITLE6=Why Don't You Love Me
TTITLE7=A Mansion On The Hill
TTITLE8=Moanin' The Blues
TTITLE9=I Just Don't Like This Kind Of Livin'
TTITLE10=They'll Never Take Her Love From Me
TTITLE11=Mind Your Own Business
TTITLE12=Lovesick Blues
TTITLE13=Nobody's Lonesome For Me
TTITLE14=Don Helms and Sammy Pruett and The Drifting Cowboys - Twin Guitar
TTITLE14=Polka
TTITLE15=Gathering Flowers For The Master's Bouquet
TTITLE16=Jerry Rivers and The Drifting Cowboys - Eighth Of January
TTITLE17=Closing Theme
EXTD=
EXTT0=
EXTT1=
EXTT2=
EXTT3=
EXTT4=
EXTT5=
EXTT6=
EXTT7=
EXTT8=
EXTT9=
EXTT10=
EXTT11=
EXTT12=
EXTT13=
EXTT14=
EXTT15=
EXTT16=
EXTT17=
PLAYORDER=
